<mxfile host="drawio-plugin" modified="2022-10-12T10:56:02.060Z" agent="5.0 (X11; Linux x86_64) AppleWebKit/537.36 (KHTML, like Gecko) Chrome/98.0.4758.102 Safari/537.36" etag="JDDNXHXUpZV1_K_CwWC4" version="15.5.4" type="embed" pages="5"><diagram id="X1YBOSZcnJoGYTp1R_Dq" name="Java Runtime Data Area"><mxGraphModel dx="1020" dy="724" grid="1" gridSize="10" guides="1" tooltips="1" connect="1" arrows="1" fold="1" page="1" pageScale="1" pageWidth="1920" pageHeight="1200" math="0" shadow="0"><root><mxCell id="WPPOIX6bTRqMuEIvjpbZ-0"/><mxCell id="WPPOIX6bTRqMuEIvjpbZ-1" parent="WPPOIX6bTRqMuEIvjpbZ-0"/><mxCell id="WPPOIX6bTRqMuEIvjpbZ-18" value="" style="rounded=0;whiteSpace=wrap;html=1;fillColor=#FFFFFF;" parent="WPPOIX6bTRqMuEIvjpbZ-1" vertex="1"><mxGeometry x="200" y="110" width="560" height="240" as="geometry"/></mxCell><mxCell id="WPPOIX6bTRqMuEIvjpbZ-2" value="Method Area" style="rounded=1;whiteSpace=wrap;html=1;fillColor=#E6E6E6;" parent="WPPOIX6bTRqMuEIvjpbZ-1" vertex="1"><mxGeometry x="220" y="180" width="120" height="60" as="geometry"/></mxCell><mxCell id="WPPOIX6bTRqMuEIvjpbZ-3" value="VM Stack" style="rounded=1;whiteSpace=wrap;html=1;fillColor=#999999;" parent="WPPOIX6bTRqMuEIvjpbZ-1" vertex="1"><mxGeometry x="360" y="180" width="180" height="60" as="geometry"/></mxCell><mxCell id="WPPOIX6bTRqMuEIvjpbZ-4" value="Native Method Stack" style="rounded=1;whiteSpace=wrap;html=1;fillColor=#999999;" parent="WPPOIX6bTRqMuEIvjpbZ-1" vertex="1"><mxGeometry x="560" y="180" width="180" height="60" as="geometry"/></mxCell><mxCell id="WPPOIX6bTRqMuEIvjpbZ-5" value="Heap" style="rounded=1;whiteSpace=wrap;html=1;fillColor=#E6E6E6;" parent="WPPOIX6bTRqMuEIvjpbZ-1" vertex="1"><mxGeometry x="220" y="270" width="120" height="60" as="geometry"/></mxCell><mxCell id="WPPOIX6bTRqMuEIvjpbZ-6" value="Program Counter Register" style="rounded=1;whiteSpace=wrap;html=1;fillColor=#999999;" parent="WPPOIX6bTRqMuEIvjpbZ-1" vertex="1"><mxGeometry x="360" y="270" width="380" height="60" as="geometry"/></mxCell><mxCell id="WPPOIX6bTRqMuEIvjpbZ-7" value="Execution engine" style="rounded=1;whiteSpace=wrap;html=1;fillColor=#FFFFFF;" parent="WPPOIX6bTRqMuEIvjpbZ-1" vertex="1"><mxGeometry x="220" y="420" width="120" height="60" as="geometry"/></mxCell><mxCell id="WPPOIX6bTRqMuEIvjpbZ-8" value="Native library interface" style="rounded=1;whiteSpace=wrap;html=1;fillColor=#FFFFFF;" parent="WPPOIX6bTRqMuEIvjpbZ-1" vertex="1"><mxGeometry x="400" y="420" width="140" height="60" as="geometry"/></mxCell><mxCell id="WPPOIX6bTRqMuEIvjpbZ-9" value="" style="shape=flexArrow;endArrow=classic;html=1;" parent="WPPOIX6bTRqMuEIvjpbZ-1" edge="1"><mxGeometry width="50" height="50" relative="1" as="geometry"><mxPoint x="250" y="353" as="sourcePoint"/><mxPoint x="250" y="413" as="targetPoint"/></mxGeometry></mxCell><mxCell id="WPPOIX6bTRqMuEIvjpbZ-10" value="" style="shape=flexArrow;endArrow=classic;html=1;" parent="WPPOIX6bTRqMuEIvjpbZ-1" edge="1"><mxGeometry width="50" height="50" relative="1" as="geometry"><mxPoint x="300" y="413" as="sourcePoint"/><mxPoint x="300" y="353" as="targetPoint"/></mxGeometry></mxCell><mxCell id="WPPOIX6bTRqMuEIvjpbZ-11" value="" style="shape=flexArrow;endArrow=classic;html=1;" parent="WPPOIX6bTRqMuEIvjpbZ-1" edge="1"><mxGeometry width="50" height="50" relative="1" as="geometry"><mxPoint x="345" y="449.5" as="sourcePoint"/><mxPoint x="395" y="449.5" as="targetPoint"/></mxGeometry></mxCell><mxCell id="WPPOIX6bTRqMuEIvjpbZ-16" value="" style="shape=flexArrow;endArrow=classic;html=1;" parent="WPPOIX6bTRqMuEIvjpbZ-1" edge="1"><mxGeometry width="50" height="50" relative="1" as="geometry"><mxPoint x="442.5" y="355" as="sourcePoint"/><mxPoint x="442.5" y="415" as="targetPoint"/></mxGeometry></mxCell><mxCell id="WPPOIX6bTRqMuEIvjpbZ-17" value="" style="shape=flexArrow;endArrow=classic;html=1;" parent="WPPOIX6bTRqMuEIvjpbZ-1" edge="1"><mxGeometry width="50" height="50" relative="1" as="geometry"><mxPoint x="492.5" y="414" as="sourcePoint"/><mxPoint x="492.5" y="354" as="targetPoint"/></mxGeometry></mxCell><mxCell id="WPPOIX6bTRqMuEIvjpbZ-19" value="&lt;b&gt;Runtime Data Area&lt;/b&gt;" style="text;html=1;align=center;verticalAlign=middle;resizable=0;points=[];autosize=1;" parent="WPPOIX6bTRqMuEIvjpbZ-1" vertex="1"><mxGeometry x="420" y="130" width="120" height="20" as="geometry"/></mxCell><mxCell id="WPPOIX6bTRqMuEIvjpbZ-20" value="" style="rounded=0;whiteSpace=wrap;html=1;fillColor=#E6E6E6;" parent="WPPOIX6bTRqMuEIvjpbZ-1" vertex="1"><mxGeometry x="780" y="110" width="90" height="30" as="geometry"/></mxCell><mxCell id="WPPOIX6bTRqMuEIvjpbZ-21" value="" style="rounded=0;whiteSpace=wrap;html=1;fillColor=#999999;" parent="WPPOIX6bTRqMuEIvjpbZ-1" vertex="1"><mxGeometry x="780" y="160" width="90" height="30" as="geometry"/></mxCell><mxCell id="WPPOIX6bTRqMuEIvjpbZ-22" value="所有线程共享的数据区" style="text;html=1;strokeColor=none;fillColor=none;align=left;verticalAlign=middle;whiteSpace=wrap;rounded=0;" parent="WPPOIX6bTRqMuEIvjpbZ-1" vertex="1"><mxGeometry x="890" y="115" width="130" height="20" as="geometry"/></mxCell><mxCell id="WPPOIX6bTRqMuEIvjpbZ-23" value="线程隔离的数据区" style="text;html=1;strokeColor=none;fillColor=none;align=left;verticalAlign=middle;whiteSpace=wrap;rounded=0;" parent="WPPOIX6bTRqMuEIvjpbZ-1" vertex="1"><mxGeometry x="890" y="165" width="130" height="20" as="geometry"/></mxCell><mxCell id="7" value="" style="shape=flexArrow;endArrow=classic;html=1;" parent="WPPOIX6bTRqMuEIvjpbZ-1" edge="1"><mxGeometry width="50" height="50" relative="1" as="geometry"><mxPoint x="546" y="449.6" as="sourcePoint"/><mxPoint x="596" y="449.6" as="targetPoint"/></mxGeometry></mxCell><mxCell id="9" value="" style="group" parent="WPPOIX6bTRqMuEIvjpbZ-1" vertex="1" connectable="0"><mxGeometry x="600" y="420" width="150" height="60" as="geometry"/></mxCell><mxCell id="2" value="" style="whiteSpace=wrap;html=1;rounded=1;fillColor=#FFFFFF;" parent="9" vertex="1"><mxGeometry width="150" height="60" as="geometry"/></mxCell><mxCell id="WPPOIX6bTRqMuEIvjpbZ-13" value="Native library method" style="text;html=1;align=center;verticalAlign=middle;resizable=0;points=[];autosize=1;" parent="9" vertex="1"><mxGeometry x="10" y="20" width="130" height="20" as="geometry"/></mxCell></root></mxGraphModel></diagram><diagram id="iRne0VEe3zbSD4RcUCCB" name="Page-02"><mxGraphModel dx="1020" dy="724" grid="1" gridSize="10" guides="1" tooltips="1" connect="1" arrows="1" fold="1" page="1" pageScale="1" pageWidth="1920" pageHeight="1200" math="0" shadow="0"><root><mxCell id="1AnxMaTnwoTTuYOSQYz--0"/><mxCell id="1AnxMaTnwoTTuYOSQYz--1" parent="1AnxMaTnwoTTuYOSQYz--0"/><mxCell id="1AnxMaTnwoTTuYOSQYz--32" value="" style="rounded=0;whiteSpace=wrap;html=1;fillColor=#FFFFFF;" parent="1AnxMaTnwoTTuYOSQYz--1" vertex="1"><mxGeometry x="360" y="400" width="680" height="240" as="geometry"/></mxCell><mxCell id="1AnxMaTnwoTTuYOSQYz--31" value="" style="rounded=0;whiteSpace=wrap;html=1;fillColor=#FFFFFF;" parent="1AnxMaTnwoTTuYOSQYz--1" vertex="1"><mxGeometry x="360" y="120" width="680" height="240" as="geometry"/></mxCell><mxCell id="1AnxMaTnwoTTuYOSQYz--2" value="" style="shape=table;html=1;whiteSpace=wrap;startSize=0;container=1;collapsible=0;childLayout=tableLayout;rounded=0;fillColor=#FFFFFF;" parent="1AnxMaTnwoTTuYOSQYz--1" vertex="1"><mxGeometry x="160" y="120" width="140" height="520" as="geometry"/></mxCell><mxCell id="1AnxMaTnwoTTuYOSQYz--3" value="" style="shape=partialRectangle;html=1;whiteSpace=wrap;collapsible=0;dropTarget=0;pointerEvents=0;fillColor=none;top=0;left=0;bottom=0;right=0;points=[[0,0.5],[1,0.5]];portConstraint=eastwest;" parent="1AnxMaTnwoTTuYOSQYz--2" vertex="1"><mxGeometry width="140" height="40" as="geometry"/></mxCell><mxCell id="1AnxMaTnwoTTuYOSQYz--4" value="Java栈&lt;br&gt;本地变量表" style="shape=partialRectangle;html=1;whiteSpace=wrap;connectable=0;fillColor=none;top=0;left=0;bottom=0;right=0;overflow=hidden;" parent="1AnxMaTnwoTTuYOSQYz--3" vertex="1"><mxGeometry width="140" height="40" as="geometry"/></mxCell><mxCell id="1AnxMaTnwoTTuYOSQYz--7" value="" style="shape=partialRectangle;html=1;whiteSpace=wrap;collapsible=0;dropTarget=0;pointerEvents=0;fillColor=none;top=0;left=0;bottom=0;right=0;points=[[0,0.5],[1,0.5]];portConstraint=eastwest;" parent="1AnxMaTnwoTTuYOSQYz--2" vertex="1"><mxGeometry y="40" width="140" height="40" as="geometry"/></mxCell><mxCell id="1AnxMaTnwoTTuYOSQYz--8" value="int" style="shape=partialRectangle;html=1;whiteSpace=wrap;connectable=0;fillColor=none;top=0;left=0;bottom=0;right=0;overflow=hidden;" parent="1AnxMaTnwoTTuYOSQYz--7" vertex="1"><mxGeometry width="140" height="40" as="geometry"/></mxCell><mxCell id="1AnxMaTnwoTTuYOSQYz--11" value="" style="shape=partialRectangle;html=1;whiteSpace=wrap;collapsible=0;dropTarget=0;pointerEvents=0;fillColor=none;top=0;left=0;bottom=0;right=0;points=[[0,0.5],[1,0.5]];portConstraint=eastwest;" parent="1AnxMaTnwoTTuYOSQYz--2" vertex="1"><mxGeometry y="80" width="140" height="40" as="geometry"/></mxCell><mxCell id="1AnxMaTnwoTTuYOSQYz--12" value="short" style="shape=partialRectangle;html=1;whiteSpace=wrap;connectable=0;fillColor=none;top=0;left=0;bottom=0;right=0;overflow=hidden;" parent="1AnxMaTnwoTTuYOSQYz--11" vertex="1"><mxGeometry width="140" height="40" as="geometry"/></mxCell><mxCell id="1AnxMaTnwoTTuYOSQYz--15" style="shape=partialRectangle;html=1;whiteSpace=wrap;collapsible=0;dropTarget=0;pointerEvents=0;fillColor=none;top=0;left=0;bottom=0;right=0;points=[[0,0.5],[1,0.5]];portConstraint=eastwest;" parent="1AnxMaTnwoTTuYOSQYz--2" vertex="1"><mxGeometry y="120" width="140" height="40" as="geometry"/></mxCell><mxCell id="1AnxMaTnwoTTuYOSQYz--16" value="reference" style="shape=partialRectangle;html=1;whiteSpace=wrap;connectable=0;fillColor=none;top=0;left=0;bottom=0;right=0;overflow=hidden;" parent="1AnxMaTnwoTTuYOSQYz--15" vertex="1"><mxGeometry width="140" height="40" as="geometry"/></mxCell><mxCell id="1AnxMaTnwoTTuYOSQYz--17" style="shape=partialRectangle;html=1;whiteSpace=wrap;collapsible=0;dropTarget=0;pointerEvents=0;fillColor=none;top=0;left=0;bottom=0;right=0;points=[[0,0.5],[1,0.5]];portConstraint=eastwest;" parent="1AnxMaTnwoTTuYOSQYz--2" vertex="1"><mxGeometry y="160" width="140" height="40" as="geometry"/></mxCell><mxCell id="1AnxMaTnwoTTuYOSQYz--18" value="int" style="shape=partialRectangle;html=1;whiteSpace=wrap;connectable=0;fillColor=none;top=0;left=0;bottom=0;right=0;overflow=hidden;" parent="1AnxMaTnwoTTuYOSQYz--17" vertex="1"><mxGeometry width="140" height="40" as="geometry"/></mxCell><mxCell id="1AnxMaTnwoTTuYOSQYz--19" style="shape=partialRectangle;html=1;whiteSpace=wrap;collapsible=0;dropTarget=0;pointerEvents=0;fillColor=none;top=0;left=0;bottom=0;right=0;points=[[0,0.5],[1,0.5]];portConstraint=eastwest;" parent="1AnxMaTnwoTTuYOSQYz--2" vertex="1"><mxGeometry y="200" width="140" height="80" as="geometry"/></mxCell><mxCell id="1AnxMaTnwoTTuYOSQYz--20" value="long" style="shape=partialRectangle;html=1;whiteSpace=wrap;connectable=0;fillColor=none;top=0;left=0;bottom=0;right=0;overflow=hidden;" parent="1AnxMaTnwoTTuYOSQYz--19" vertex="1"><mxGeometry width="140" height="80" as="geometry"/></mxCell><mxCell id="1AnxMaTnwoTTuYOSQYz--21" style="shape=partialRectangle;html=1;whiteSpace=wrap;collapsible=0;dropTarget=0;pointerEvents=0;fillColor=none;top=0;left=0;bottom=0;right=0;points=[[0,0.5],[1,0.5]];portConstraint=eastwest;" parent="1AnxMaTnwoTTuYOSQYz--2" vertex="1"><mxGeometry y="280" width="140" height="80" as="geometry"/></mxCell><mxCell id="1AnxMaTnwoTTuYOSQYz--22" value="double" style="shape=partialRectangle;html=1;whiteSpace=wrap;connectable=0;fillColor=none;top=0;left=0;bottom=0;right=0;overflow=hidden;" parent="1AnxMaTnwoTTuYOSQYz--21" vertex="1"><mxGeometry width="140" height="80" as="geometry"/></mxCell><mxCell id="1AnxMaTnwoTTuYOSQYz--23" style="shape=partialRectangle;html=1;whiteSpace=wrap;collapsible=0;dropTarget=0;pointerEvents=0;fillColor=none;top=0;left=0;bottom=0;right=0;points=[[0,0.5],[1,0.5]];portConstraint=eastwest;" parent="1AnxMaTnwoTTuYOSQYz--2" vertex="1"><mxGeometry y="360" width="140" height="40" as="geometry"/></mxCell><mxCell id="1AnxMaTnwoTTuYOSQYz--24" value="float" style="shape=partialRectangle;html=1;whiteSpace=wrap;connectable=0;fillColor=none;top=0;left=0;bottom=0;right=0;overflow=hidden;" parent="1AnxMaTnwoTTuYOSQYz--23" vertex="1"><mxGeometry width="140" height="40" as="geometry"/></mxCell><mxCell id="1AnxMaTnwoTTuYOSQYz--25" style="shape=partialRectangle;html=1;whiteSpace=wrap;collapsible=0;dropTarget=0;pointerEvents=0;fillColor=none;top=0;left=0;bottom=0;right=0;points=[[0,0.5],[1,0.5]];portConstraint=eastwest;" parent="1AnxMaTnwoTTuYOSQYz--2" vertex="1"><mxGeometry y="400" width="140" height="40" as="geometry"/></mxCell><mxCell id="1AnxMaTnwoTTuYOSQYz--26" value="..." style="shape=partialRectangle;html=1;whiteSpace=wrap;connectable=0;fillColor=none;top=0;left=0;bottom=0;right=0;overflow=hidden;" parent="1AnxMaTnwoTTuYOSQYz--25" vertex="1"><mxGeometry width="140" height="40" as="geometry"/></mxCell><mxCell id="1AnxMaTnwoTTuYOSQYz--27" style="shape=partialRectangle;html=1;whiteSpace=wrap;collapsible=0;dropTarget=0;pointerEvents=0;fillColor=none;top=0;left=0;bottom=0;right=0;points=[[0,0.5],[1,0.5]];portConstraint=eastwest;" parent="1AnxMaTnwoTTuYOSQYz--2" vertex="1"><mxGeometry y="440" width="140" height="40" as="geometry"/></mxCell><mxCell id="1AnxMaTnwoTTuYOSQYz--28" style="shape=partialRectangle;html=1;whiteSpace=wrap;connectable=0;fillColor=none;top=0;left=0;bottom=0;right=0;overflow=hidden;" parent="1AnxMaTnwoTTuYOSQYz--27" vertex="1"><mxGeometry width="140" height="40" as="geometry"/></mxCell><mxCell id="1AnxMaTnwoTTuYOSQYz--29" style="shape=partialRectangle;html=1;whiteSpace=wrap;collapsible=0;dropTarget=0;pointerEvents=0;fillColor=none;top=0;left=0;bottom=0;right=0;points=[[0,0.5],[1,0.5]];portConstraint=eastwest;" parent="1AnxMaTnwoTTuYOSQYz--2" vertex="1"><mxGeometry y="480" width="140" height="40" as="geometry"/></mxCell><mxCell id="1AnxMaTnwoTTuYOSQYz--30" style="shape=partialRectangle;html=1;whiteSpace=wrap;connectable=0;fillColor=none;top=0;left=0;bottom=0;right=0;overflow=hidden;" parent="1AnxMaTnwoTTuYOSQYz--29" vertex="1"><mxGeometry width="140" height="40" as="geometry"/></mxCell><mxCell id="1AnxMaTnwoTTuYOSQYz--42" value="" style="edgeStyle=none;rounded=0;orthogonalLoop=1;jettySize=auto;html=1;startArrow=none;startFill=0;endArrow=classic;endFill=1;" parent="1AnxMaTnwoTTuYOSQYz--1" source="1AnxMaTnwoTTuYOSQYz--33" target="1AnxMaTnwoTTuYOSQYz--36" edge="1"><mxGeometry relative="1" as="geometry"><mxPoint x="640" y="230" as="targetPoint"/></mxGeometry></mxCell><mxCell id="1AnxMaTnwoTTuYOSQYz--33" value="到对象实例数据的指针" style="rounded=0;whiteSpace=wrap;html=1;fillColor=#FFFFFF;" parent="1AnxMaTnwoTTuYOSQYz--1" vertex="1"><mxGeometry x="400" y="200" width="160" height="60" as="geometry"/></mxCell><mxCell id="1AnxMaTnwoTTuYOSQYz--43" value="" style="edgeStyle=none;rounded=0;orthogonalLoop=1;jettySize=auto;html=1;startArrow=none;startFill=0;endArrow=classic;endFill=1;exitX=1;exitY=0.5;exitDx=0;exitDy=0;entryX=0.5;entryY=0;entryDx=0;entryDy=0;" parent="1AnxMaTnwoTTuYOSQYz--1" source="1AnxMaTnwoTTuYOSQYz--34" target="1AnxMaTnwoTTuYOSQYz--37" edge="1"><mxGeometry relative="1" as="geometry"/></mxCell><mxCell id="1AnxMaTnwoTTuYOSQYz--34" value="到对象类型数据的指针" style="rounded=0;whiteSpace=wrap;html=1;fillColor=#FFFFFF;" parent="1AnxMaTnwoTTuYOSQYz--1" vertex="1"><mxGeometry x="400" y="260" width="160" height="60" as="geometry"/></mxCell><mxCell id="1AnxMaTnwoTTuYOSQYz--35" value="" style="endArrow=none;dashed=1;html=1;dashPattern=1 3;strokeWidth=2;" parent="1AnxMaTnwoTTuYOSQYz--1" edge="1"><mxGeometry width="50" height="50" relative="1" as="geometry"><mxPoint x="690" y="340" as="sourcePoint"/><mxPoint x="690" y="180" as="targetPoint"/></mxGeometry></mxCell><mxCell id="1AnxMaTnwoTTuYOSQYz--40" value="" style="rounded=0;orthogonalLoop=1;jettySize=auto;html=1;startArrow=none;startFill=0;endArrow=classic;endFill=1;exitX=1;exitY=0.5;exitDx=0;exitDy=0;entryX=0;entryY=0.5;entryDx=0;entryDy=0;" parent="1AnxMaTnwoTTuYOSQYz--1" source="1AnxMaTnwoTTuYOSQYz--15" target="1AnxMaTnwoTTuYOSQYz--33" edge="1"><mxGeometry relative="1" as="geometry"><mxPoint x="1050" y="250" as="targetPoint"/></mxGeometry></mxCell><mxCell id="1AnxMaTnwoTTuYOSQYz--36" value="对象实例数据" style="ellipse;whiteSpace=wrap;html=1;rounded=0;fillColor=#FFFFFF;" parent="1AnxMaTnwoTTuYOSQYz--1" vertex="1"><mxGeometry x="740" y="210" width="230" height="120" as="geometry"/></mxCell><mxCell id="1AnxMaTnwoTTuYOSQYz--37" value="对象类型数据" style="ellipse;whiteSpace=wrap;html=1;rounded=0;fillColor=#FFFFFF;" parent="1AnxMaTnwoTTuYOSQYz--1" vertex="1"><mxGeometry x="690" y="490" width="300" height="110" as="geometry"/></mxCell><mxCell id="1AnxMaTnwoTTuYOSQYz--44" value="方法区" style="text;html=1;align=center;verticalAlign=middle;resizable=0;points=[];autosize=1;" parent="1AnxMaTnwoTTuYOSQYz--1" vertex="1"><mxGeometry x="670" y="420" width="50" height="20" as="geometry"/></mxCell><mxCell id="1AnxMaTnwoTTuYOSQYz--45" value="Java堆" style="text;html=1;align=center;verticalAlign=middle;resizable=0;points=[];autosize=1;" parent="1AnxMaTnwoTTuYOSQYz--1" vertex="1"><mxGeometry x="664" y="140" width="50" height="20" as="geometry"/></mxCell><mxCell id="1AnxMaTnwoTTuYOSQYz--46" value="句柄池" style="text;html=1;align=center;verticalAlign=middle;resizable=0;points=[];autosize=1;" parent="1AnxMaTnwoTTuYOSQYz--1" vertex="1"><mxGeometry x="440" y="160" width="50" height="20" as="geometry"/></mxCell><mxCell id="1AnxMaTnwoTTuYOSQYz--47" value="实例池" style="text;html=1;align=center;verticalAlign=middle;resizable=0;points=[];autosize=1;" parent="1AnxMaTnwoTTuYOSQYz--1" vertex="1"><mxGeometry x="830" y="180" width="50" height="20" as="geometry"/></mxCell></root></mxGraphModel></diagram><diagram id="hqWOuWqGS1My_1FKpcQm" name="Page-03"><mxGraphModel dx="1020" dy="724" grid="1" gridSize="10" guides="1" tooltips="1" connect="1" arrows="1" fold="1" page="1" pageScale="1" pageWidth="1920" pageHeight="1200" math="0" shadow="0"><root><mxCell id="qwHWoYLYMm_oQ8pBQoWD-0"/><mxCell id="qwHWoYLYMm_oQ8pBQoWD-1" parent="qwHWoYLYMm_oQ8pBQoWD-0"/><mxCell id="qwHWoYLYMm_oQ8pBQoWD-2" value="" style="rounded=0;whiteSpace=wrap;html=1;fillColor=#FFFFFF;" parent="qwHWoYLYMm_oQ8pBQoWD-1" vertex="1"><mxGeometry x="360" y="400" width="680" height="240" as="geometry"/></mxCell><mxCell id="qwHWoYLYMm_oQ8pBQoWD-3" value="" style="rounded=0;whiteSpace=wrap;html=1;fillColor=#FFFFFF;" parent="qwHWoYLYMm_oQ8pBQoWD-1" vertex="1"><mxGeometry x="360" y="120" width="680" height="240" as="geometry"/></mxCell><mxCell id="qwHWoYLYMm_oQ8pBQoWD-4" value="" style="shape=table;html=1;whiteSpace=wrap;startSize=0;container=1;collapsible=0;childLayout=tableLayout;rounded=0;fillColor=#FFFFFF;" parent="qwHWoYLYMm_oQ8pBQoWD-1" vertex="1"><mxGeometry x="160" y="120" width="140" height="520" as="geometry"/></mxCell><mxCell id="qwHWoYLYMm_oQ8pBQoWD-5" value="" style="shape=partialRectangle;html=1;whiteSpace=wrap;collapsible=0;dropTarget=0;pointerEvents=0;fillColor=none;top=0;left=0;bottom=0;right=0;points=[[0,0.5],[1,0.5]];portConstraint=eastwest;" parent="qwHWoYLYMm_oQ8pBQoWD-4" vertex="1"><mxGeometry width="140" height="40" as="geometry"/></mxCell><mxCell id="qwHWoYLYMm_oQ8pBQoWD-6" value="Java栈&lt;br&gt;本地变量表" style="shape=partialRectangle;html=1;whiteSpace=wrap;connectable=0;fillColor=none;top=0;left=0;bottom=0;right=0;overflow=hidden;" parent="qwHWoYLYMm_oQ8pBQoWD-5" vertex="1"><mxGeometry width="140" height="40" as="geometry"/></mxCell><mxCell id="qwHWoYLYMm_oQ8pBQoWD-7" value="" style="shape=partialRectangle;html=1;whiteSpace=wrap;collapsible=0;dropTarget=0;pointerEvents=0;fillColor=none;top=0;left=0;bottom=0;right=0;points=[[0,0.5],[1,0.5]];portConstraint=eastwest;" parent="qwHWoYLYMm_oQ8pBQoWD-4" vertex="1"><mxGeometry y="40" width="140" height="40" as="geometry"/></mxCell><mxCell id="qwHWoYLYMm_oQ8pBQoWD-8" value="int" style="shape=partialRectangle;html=1;whiteSpace=wrap;connectable=0;fillColor=none;top=0;left=0;bottom=0;right=0;overflow=hidden;" parent="qwHWoYLYMm_oQ8pBQoWD-7" vertex="1"><mxGeometry width="140" height="40" as="geometry"/></mxCell><mxCell id="qwHWoYLYMm_oQ8pBQoWD-9" value="" style="shape=partialRectangle;html=1;whiteSpace=wrap;collapsible=0;dropTarget=0;pointerEvents=0;fillColor=none;top=0;left=0;bottom=0;right=0;points=[[0,0.5],[1,0.5]];portConstraint=eastwest;" parent="qwHWoYLYMm_oQ8pBQoWD-4" vertex="1"><mxGeometry y="80" width="140" height="40" as="geometry"/></mxCell><mxCell id="qwHWoYLYMm_oQ8pBQoWD-10" value="short" style="shape=partialRectangle;html=1;whiteSpace=wrap;connectable=0;fillColor=none;top=0;left=0;bottom=0;right=0;overflow=hidden;" parent="qwHWoYLYMm_oQ8pBQoWD-9" vertex="1"><mxGeometry width="140" height="40" as="geometry"/></mxCell><mxCell id="qwHWoYLYMm_oQ8pBQoWD-11" style="shape=partialRectangle;html=1;whiteSpace=wrap;collapsible=0;dropTarget=0;pointerEvents=0;fillColor=none;top=0;left=0;bottom=0;right=0;points=[[0,0.5],[1,0.5]];portConstraint=eastwest;" parent="qwHWoYLYMm_oQ8pBQoWD-4" vertex="1"><mxGeometry y="120" width="140" height="40" as="geometry"/></mxCell><mxCell id="qwHWoYLYMm_oQ8pBQoWD-12" value="reference" style="shape=partialRectangle;html=1;whiteSpace=wrap;connectable=0;fillColor=none;top=0;left=0;bottom=0;right=0;overflow=hidden;" parent="qwHWoYLYMm_oQ8pBQoWD-11" vertex="1"><mxGeometry width="140" height="40" as="geometry"/></mxCell><mxCell id="qwHWoYLYMm_oQ8pBQoWD-13" style="shape=partialRectangle;html=1;whiteSpace=wrap;collapsible=0;dropTarget=0;pointerEvents=0;fillColor=none;top=0;left=0;bottom=0;right=0;points=[[0,0.5],[1,0.5]];portConstraint=eastwest;" parent="qwHWoYLYMm_oQ8pBQoWD-4" vertex="1"><mxGeometry y="160" width="140" height="40" as="geometry"/></mxCell><mxCell id="qwHWoYLYMm_oQ8pBQoWD-14" value="int" style="shape=partialRectangle;html=1;whiteSpace=wrap;connectable=0;fillColor=none;top=0;left=0;bottom=0;right=0;overflow=hidden;" parent="qwHWoYLYMm_oQ8pBQoWD-13" vertex="1"><mxGeometry width="140" height="40" as="geometry"/></mxCell><mxCell id="qwHWoYLYMm_oQ8pBQoWD-15" style="shape=partialRectangle;html=1;whiteSpace=wrap;collapsible=0;dropTarget=0;pointerEvents=0;fillColor=none;top=0;left=0;bottom=0;right=0;points=[[0,0.5],[1,0.5]];portConstraint=eastwest;" parent="qwHWoYLYMm_oQ8pBQoWD-4" vertex="1"><mxGeometry y="200" width="140" height="80" as="geometry"/></mxCell><mxCell id="qwHWoYLYMm_oQ8pBQoWD-16" value="long" style="shape=partialRectangle;html=1;whiteSpace=wrap;connectable=0;fillColor=none;top=0;left=0;bottom=0;right=0;overflow=hidden;" parent="qwHWoYLYMm_oQ8pBQoWD-15" vertex="1"><mxGeometry width="140" height="80" as="geometry"/></mxCell><mxCell id="qwHWoYLYMm_oQ8pBQoWD-17" style="shape=partialRectangle;html=1;whiteSpace=wrap;collapsible=0;dropTarget=0;pointerEvents=0;fillColor=none;top=0;left=0;bottom=0;right=0;points=[[0,0.5],[1,0.5]];portConstraint=eastwest;" parent="qwHWoYLYMm_oQ8pBQoWD-4" vertex="1"><mxGeometry y="280" width="140" height="80" as="geometry"/></mxCell><mxCell id="qwHWoYLYMm_oQ8pBQoWD-18" value="double" style="shape=partialRectangle;html=1;whiteSpace=wrap;connectable=0;fillColor=none;top=0;left=0;bottom=0;right=0;overflow=hidden;" parent="qwHWoYLYMm_oQ8pBQoWD-17" vertex="1"><mxGeometry width="140" height="80" as="geometry"/></mxCell><mxCell id="qwHWoYLYMm_oQ8pBQoWD-19" style="shape=partialRectangle;html=1;whiteSpace=wrap;collapsible=0;dropTarget=0;pointerEvents=0;fillColor=none;top=0;left=0;bottom=0;right=0;points=[[0,0.5],[1,0.5]];portConstraint=eastwest;" parent="qwHWoYLYMm_oQ8pBQoWD-4" vertex="1"><mxGeometry y="360" width="140" height="40" as="geometry"/></mxCell><mxCell id="qwHWoYLYMm_oQ8pBQoWD-20" value="float" style="shape=partialRectangle;html=1;whiteSpace=wrap;connectable=0;fillColor=none;top=0;left=0;bottom=0;right=0;overflow=hidden;" parent="qwHWoYLYMm_oQ8pBQoWD-19" vertex="1"><mxGeometry width="140" height="40" as="geometry"/></mxCell><mxCell id="qwHWoYLYMm_oQ8pBQoWD-21" style="shape=partialRectangle;html=1;whiteSpace=wrap;collapsible=0;dropTarget=0;pointerEvents=0;fillColor=none;top=0;left=0;bottom=0;right=0;points=[[0,0.5],[1,0.5]];portConstraint=eastwest;" parent="qwHWoYLYMm_oQ8pBQoWD-4" vertex="1"><mxGeometry y="400" width="140" height="40" as="geometry"/></mxCell><mxCell id="qwHWoYLYMm_oQ8pBQoWD-22" value="..." style="shape=partialRectangle;html=1;whiteSpace=wrap;connectable=0;fillColor=none;top=0;left=0;bottom=0;right=0;overflow=hidden;" parent="qwHWoYLYMm_oQ8pBQoWD-21" vertex="1"><mxGeometry width="140" height="40" as="geometry"/></mxCell><mxCell id="qwHWoYLYMm_oQ8pBQoWD-23" style="shape=partialRectangle;html=1;whiteSpace=wrap;collapsible=0;dropTarget=0;pointerEvents=0;fillColor=none;top=0;left=0;bottom=0;right=0;points=[[0,0.5],[1,0.5]];portConstraint=eastwest;" parent="qwHWoYLYMm_oQ8pBQoWD-4" vertex="1"><mxGeometry y="440" width="140" height="40" as="geometry"/></mxCell><mxCell id="qwHWoYLYMm_oQ8pBQoWD-24" style="shape=partialRectangle;html=1;whiteSpace=wrap;connectable=0;fillColor=none;top=0;left=0;bottom=0;right=0;overflow=hidden;" parent="qwHWoYLYMm_oQ8pBQoWD-23" vertex="1"><mxGeometry width="140" height="40" as="geometry"/></mxCell><mxCell id="qwHWoYLYMm_oQ8pBQoWD-25" style="shape=partialRectangle;html=1;whiteSpace=wrap;collapsible=0;dropTarget=0;pointerEvents=0;fillColor=none;top=0;left=0;bottom=0;right=0;points=[[0,0.5],[1,0.5]];portConstraint=eastwest;" parent="qwHWoYLYMm_oQ8pBQoWD-4" vertex="1"><mxGeometry y="480" width="140" height="40" as="geometry"/></mxCell><mxCell id="qwHWoYLYMm_oQ8pBQoWD-26" style="shape=partialRectangle;html=1;whiteSpace=wrap;connectable=0;fillColor=none;top=0;left=0;bottom=0;right=0;overflow=hidden;" parent="qwHWoYLYMm_oQ8pBQoWD-25" vertex="1"><mxGeometry width="140" height="40" as="geometry"/></mxCell><mxCell id="qwHWoYLYMm_oQ8pBQoWD-32" value="" style="rounded=0;orthogonalLoop=1;jettySize=auto;html=1;startArrow=none;startFill=0;endArrow=classic;endFill=1;exitX=1;exitY=0.5;exitDx=0;exitDy=0;entryX=0.059;entryY=0.542;entryDx=0;entryDy=0;entryPerimeter=0;" parent="qwHWoYLYMm_oQ8pBQoWD-1" source="qwHWoYLYMm_oQ8pBQoWD-11" target="qwHWoYLYMm_oQ8pBQoWD-3" edge="1"><mxGeometry relative="1" as="geometry"><mxPoint x="400" y="230" as="targetPoint"/></mxGeometry></mxCell><mxCell id="qwHWoYLYMm_oQ8pBQoWD-33" value="" style="ellipse;whiteSpace=wrap;html=1;rounded=0;fillColor=#FFFFFF;" parent="qwHWoYLYMm_oQ8pBQoWD-1" vertex="1"><mxGeometry x="400" y="190" width="230" height="120" as="geometry"/></mxCell><mxCell id="qwHWoYLYMm_oQ8pBQoWD-34" value="对象类型数据" style="ellipse;whiteSpace=wrap;html=1;rounded=0;fillColor=#FFFFFF;" parent="qwHWoYLYMm_oQ8pBQoWD-1" vertex="1"><mxGeometry x="690" y="490" width="300" height="110" as="geometry"/></mxCell><mxCell id="qwHWoYLYMm_oQ8pBQoWD-35" value="方法区" style="text;html=1;align=center;verticalAlign=middle;resizable=0;points=[];autosize=1;" parent="qwHWoYLYMm_oQ8pBQoWD-1" vertex="1"><mxGeometry x="670" y="420" width="50" height="20" as="geometry"/></mxCell><mxCell id="qwHWoYLYMm_oQ8pBQoWD-36" value="Java堆" style="text;html=1;align=center;verticalAlign=middle;resizable=0;points=[];autosize=1;" parent="qwHWoYLYMm_oQ8pBQoWD-1" vertex="1"><mxGeometry x="664" y="140" width="50" height="20" as="geometry"/></mxCell><mxCell id="qwHWoYLYMm_oQ8pBQoWD-39" value="到对象类型数据的指针" style="rounded=0;whiteSpace=wrap;html=1;fillColor=#FFFFFF;" parent="qwHWoYLYMm_oQ8pBQoWD-1" vertex="1"><mxGeometry x="420" y="225" width="190" height="30" as="geometry"/></mxCell><mxCell id="qwHWoYLYMm_oQ8pBQoWD-40" value="对象实例数据" style="text;html=1;align=center;verticalAlign=middle;resizable=0;points=[];autosize=1;" parent="qwHWoYLYMm_oQ8pBQoWD-1" vertex="1"><mxGeometry x="470" y="270" width="90" height="20" as="geometry"/></mxCell><mxCell id="qwHWoYLYMm_oQ8pBQoWD-29" value="" style="edgeStyle=none;rounded=0;orthogonalLoop=1;jettySize=auto;html=1;startArrow=none;startFill=0;endArrow=classic;endFill=1;exitX=1;exitY=0.5;exitDx=0;exitDy=0;entryX=0.5;entryY=0;entryDx=0;entryDy=0;" parent="qwHWoYLYMm_oQ8pBQoWD-1" source="qwHWoYLYMm_oQ8pBQoWD-39" target="qwHWoYLYMm_oQ8pBQoWD-34" edge="1"><mxGeometry relative="1" as="geometry"><mxPoint x="560" y="290" as="sourcePoint"/></mxGeometry></mxCell></root></mxGraphModel></diagram><diagram id="Euv64qfQcr6_LUZZx4Iw" name="Page-04"><mxGraphModel dx="1020" dy="724" grid="1" gridSize="10" guides="1" tooltips="1" connect="1" arrows="1" fold="1" page="1" pageScale="1" pageWidth="1920" pageHeight="1200" math="0" shadow="0"><root><mxCell id="n8jIk_8VVOOBxePN4h5b-0"/><mxCell id="n8jIk_8VVOOBxePN4h5b-1" parent="n8jIk_8VVOOBxePN4h5b-0"/><mxCell id="a_0qAPAiB__Hv4HqjeuV-0" value="" style="edgeStyle=orthogonalEdgeStyle;rounded=0;orthogonalLoop=1;jettySize=auto;html=1;entryX=0;entryY=0.5;entryDx=0;entryDy=0;" parent="n8jIk_8VVOOBxePN4h5b-1" source="a_0qAPAiB__Hv4HqjeuV-2" target="a_0qAPAiB__Hv4HqjeuV-6" edge="1"><mxGeometry relative="1" as="geometry"/></mxCell><mxCell id="a_0qAPAiB__Hv4HqjeuV-1" value="" style="edgeStyle=orthogonalEdgeStyle;rounded=0;orthogonalLoop=1;jettySize=auto;html=1;entryX=0;entryY=0.5;entryDx=0;entryDy=0;" parent="n8jIk_8VVOOBxePN4h5b-1" source="a_0qAPAiB__Hv4HqjeuV-2" target="a_0qAPAiB__Hv4HqjeuV-7" edge="1"><mxGeometry relative="1" as="geometry"/></mxCell><mxCell id="a_0qAPAiB__Hv4HqjeuV-2" value="垃圾收集" style="rounded=0;whiteSpace=wrap;html=1;" parent="n8jIk_8VVOOBxePN4h5b-1" vertex="1"><mxGeometry x="120" y="320" width="120" height="80" as="geometry"/></mxCell><mxCell id="a_0qAPAiB__Hv4HqjeuV-3" value="" style="edgeStyle=orthogonalEdgeStyle;rounded=0;orthogonalLoop=1;jettySize=auto;html=1;" parent="n8jIk_8VVOOBxePN4h5b-1" source="a_0qAPAiB__Hv4HqjeuV-6" target="a_0qAPAiB__Hv4HqjeuV-9" edge="1"><mxGeometry relative="1" as="geometry"/></mxCell><mxCell id="a_0qAPAiB__Hv4HqjeuV-4" value="" style="edgeStyle=orthogonalEdgeStyle;rounded=0;orthogonalLoop=1;jettySize=auto;html=1;entryX=0;entryY=0.5;entryDx=0;entryDy=0;" parent="n8jIk_8VVOOBxePN4h5b-1" source="a_0qAPAiB__Hv4HqjeuV-6" target="a_0qAPAiB__Hv4HqjeuV-12" edge="1"><mxGeometry relative="1" as="geometry"><mxPoint x="380" y="160" as="targetPoint"/></mxGeometry></mxCell><mxCell id="a_0qAPAiB__Hv4HqjeuV-5" value="" style="edgeStyle=orthogonalEdgeStyle;rounded=0;orthogonalLoop=1;jettySize=auto;html=1;entryX=0;entryY=0.633;entryDx=0;entryDy=0;entryPerimeter=0;" parent="n8jIk_8VVOOBxePN4h5b-1" source="a_0qAPAiB__Hv4HqjeuV-6" target="a_0qAPAiB__Hv4HqjeuV-11" edge="1"><mxGeometry relative="1" as="geometry"><mxPoint x="380" y="160" as="targetPoint"/></mxGeometry></mxCell><mxCell id="a_0qAPAiB__Hv4HqjeuV-6" value="部分收集&lt;br&gt;（Partial GC）" style="rounded=0;whiteSpace=wrap;html=1;" parent="n8jIk_8VVOOBxePN4h5b-1" vertex="1"><mxGeometry x="320" y="240" width="200" height="60" as="geometry"/></mxCell><mxCell id="a_0qAPAiB__Hv4HqjeuV-7" value="整堆收集&lt;br&gt;（Full GC）" style="rounded=0;whiteSpace=wrap;html=1;" parent="n8jIk_8VVOOBxePN4h5b-1" vertex="1"><mxGeometry x="320" y="420" width="200" height="60" as="geometry"/></mxCell><mxCell id="a_0qAPAiB__Hv4HqjeuV-8" value="" style="edgeStyle=orthogonalEdgeStyle;rounded=0;orthogonalLoop=1;jettySize=auto;html=1;" parent="n8jIk_8VVOOBxePN4h5b-1" source="a_0qAPAiB__Hv4HqjeuV-9" target="a_0qAPAiB__Hv4HqjeuV-14" edge="1"><mxGeometry relative="1" as="geometry"/></mxCell><mxCell id="a_0qAPAiB__Hv4HqjeuV-9" value="老年代收集&lt;br&gt;（Major GC/Old GC）" style="rounded=0;whiteSpace=wrap;html=1;" parent="n8jIk_8VVOOBxePN4h5b-1" vertex="1"><mxGeometry x="640" y="240" width="200" height="60" as="geometry"/></mxCell><mxCell id="a_0qAPAiB__Hv4HqjeuV-10" value="" style="edgeStyle=orthogonalEdgeStyle;rounded=0;orthogonalLoop=1;jettySize=auto;html=1;" parent="n8jIk_8VVOOBxePN4h5b-1" source="a_0qAPAiB__Hv4HqjeuV-11" target="a_0qAPAiB__Hv4HqjeuV-13" edge="1"><mxGeometry relative="1" as="geometry"/></mxCell><mxCell id="a_0qAPAiB__Hv4HqjeuV-11" value="混合收集&lt;br&gt;（Mixed GC）" style="rounded=0;whiteSpace=wrap;html=1;" parent="n8jIk_8VVOOBxePN4h5b-1" vertex="1"><mxGeometry x="640" y="360" width="200" height="60" as="geometry"/></mxCell><mxCell id="a_0qAPAiB__Hv4HqjeuV-12" value="新生代收集&lt;br&gt;（Minor GC/Young GC）" style="rounded=0;whiteSpace=wrap;html=1;" parent="n8jIk_8VVOOBxePN4h5b-1" vertex="1"><mxGeometry x="640" y="120" width="200" height="60" as="geometry"/></mxCell><mxCell id="a_0qAPAiB__Hv4HqjeuV-13" value="G1收集器&lt;br&gt;（GC First）" style="rounded=0;whiteSpace=wrap;html=1;" parent="n8jIk_8VVOOBxePN4h5b-1" vertex="1"><mxGeometry x="920" y="360" width="200" height="60" as="geometry"/></mxCell><mxCell id="a_0qAPAiB__Hv4HqjeuV-14" value="CMS收集器" style="rounded=0;whiteSpace=wrap;html=1;" parent="n8jIk_8VVOOBxePN4h5b-1" vertex="1"><mxGeometry x="920" y="240" width="200" height="60" as="geometry"/></mxCell></root></mxGraphModel></diagram><diagram id="A7fHlwZozsqhgB3B0qWu" name="Page-05"><mxGraphModel dx="1020" dy="724" grid="1" gridSize="10" guides="1" tooltips="1" connect="1" arrows="1" fold="1" page="1" pageScale="1" pageWidth="1920" pageHeight="1200" math="0" shadow="0"><root><mxCell id="AmL8Yyyj_6-Q53EFrfhy-0"/><mxCell id="AmL8Yyyj_6-Q53EFrfhy-1" parent="AmL8Yyyj_6-Q53EFrfhy-0"/><mxCell id="kC0x5WaB522Jj1j9ZUPc-0" value="Eden" style="rounded=0;whiteSpace=wrap;html=1;fillColor=#D4E1F5;" parent="AmL8Yyyj_6-Q53EFrfhy-1" vertex="1"><mxGeometry x="170" y="235" width="960" height="60" as="geometry"/></mxCell><mxCell id="kC0x5WaB522Jj1j9ZUPc-1" value="S0" style="rounded=0;whiteSpace=wrap;html=1;fillColor=#A9C4EB;" parent="AmL8Yyyj_6-Q53EFrfhy-1" vertex="1"><mxGeometry x="1130" y="235" width="120" height="60" as="geometry"/></mxCell><mxCell id="kC0x5WaB522Jj1j9ZUPc-2" value="S1" style="rounded=0;whiteSpace=wrap;html=1;fillColor=#97D077;" parent="AmL8Yyyj_6-Q53EFrfhy-1" vertex="1"><mxGeometry x="1250" y="235" width="120" height="60" as="geometry"/></mxCell><mxCell id="kC0x5WaB522Jj1j9ZUPc-15" value="" style="shape=document;whiteSpace=wrap;html=1;boundedLbl=1;rounded=0;fillColor=#A9C4EB;" parent="AmL8Yyyj_6-Q53EFrfhy-1" vertex="1"><mxGeometry x="170" y="85" width="1080" height="85" as="geometry"/></mxCell><mxCell id="kC0x5WaB522Jj1j9ZUPc-18" value="" style="shape=document;whiteSpace=wrap;html=1;boundedLbl=1;fillColor=#97D077;" parent="AmL8Yyyj_6-Q53EFrfhy-1" vertex="1"><mxGeometry x="1252" y="87.5" width="110" height="72.5" as="geometry"/></mxCell><mxCell id="kC0x5WaB522Jj1j9ZUPc-19" value="&lt;b&gt;存活对象&lt;/b&gt;" style="text;html=1;align=center;verticalAlign=middle;resizable=0;points=[];autosize=1;" parent="AmL8Yyyj_6-Q53EFrfhy-1" vertex="1"><mxGeometry x="660" y="113.75" width="60" height="20" as="geometry"/></mxCell></root></mxGraphModel></diagram></mxfile>